<?xml version="1.0" encoding="UTF-8"?>
<svg version="1.1" xmlns="http://www.w3.org/2000/svg" width="250" height="122">
<path d="M0 0 C4.8911484 4.06838173 9.47350753 8.34438078 13.9375 12.875 C14.82018555 13.76445312 14.82018555 13.76445312 15.72070312 14.671875 C17.14947674 16.11226466 18.57508132 17.5557967 20 19 C20.33 13.39 20.66 7.78 21 2 C27.75 7.75 27.75 7.75 30 10 C30.11254883 11.87255859 30.11254883 11.87255859 29.95703125 14.1484375 C29.33530828 24.70830396 29.33530828 24.70830396 33.8125 33.8515625 C36.97000753 36.89667269 40.44941497 39.43352096 44 42 C45.36272217 43.30328195 46.71034824 44.62437146 48 46 C47.505 46.99 47.505 46.99 47 48 C44.8118196 46.50098527 42.62434059 45.00096786 40.4375 43.5 C39.73947266 43.02095215 39.04144531 42.5419043 38.32226562 42.04833984 C33.90229952 39.0098515 29.49502539 35.95392315 25.09765625 32.8828125 C24.08840088 32.17833984 23.07914551 31.47386719 22.03930664 30.74804688 C20.04904451 29.35778906 18.05990505 27.96592234 16.07202148 26.57226562 C10.80025845 22.89083374 5.48747606 19.35201958 0 16 C-0.52207031 16.36649658 -1.04414062 16.73299316 -1.58203125 17.1105957 C-34.87500859 40.47325745 -34.87500859 40.47325745 -47 48 C-45.46488177 44.35839901 -43.28003346 42.03556785 -40.4921875 39.26171875 C-39.58726563 38.35873047 -38.68234375 37.45574219 -37.75 36.52539062 C-37.04037109 35.82506714 -37.04037109 35.82506714 -36.31640625 35.1105957 C-34.89541817 33.70765879 -33.48279557 32.29626507 -32.0703125 30.88476562 C-27.48457953 26.32817926 -22.83877999 21.92327023 -17.93408203 17.71362305 C-14.2983756 14.49233758 -10.91284259 11.0164231 -7.5 7.5625 C-6.77296875 6.83095703 -6.0459375 6.09941406 -5.296875 5.34570312 C-3.52890501 3.56610176 -1.76333622 1.78419082 0 0 Z M-3.73046875 8.66796875 C-5.45876471 10.42029663 -7.17976893 12.17959262 -8.90039062 13.93945312 C-12.44215437 17.52990091 -16.07210555 20.83503497 -20 24 C-15.21999528 24 -12.14799306 21.03687624 -8.3125 18.375 C-7.51521484 17.85292969 -6.71792969 17.33085937 -5.89648438 16.79296875 C-3.7415128 15.29978913 -1.81018844 13.89769518 0 12 C0.69855847 8.72637723 0.69855847 8.72637723 0 6 C-1.51704704 5.88352109 -1.51704704 5.88352109 -3.73046875 8.66796875 Z " fill="#31706F" transform="translate(60,5)"/>
<path d="M0 0 C1.12921875 -0.00386719 1.12921875 -0.00386719 2.28125 -0.0078125 C4.5 0.125 4.5 0.125 6.28125 0.6328125 C8.50088106 1.12519545 10.37161999 1.17382245 12.63867188 1.15576172 C13.91291016 1.14561035 15.18714844 1.13545898 16.5 1.125 C16.59889038 7.17556995 16.67147918 13.22566935 16.71972656 19.27685547 C16.73983969 21.33520705 16.76713397 23.39350152 16.80175781 25.45166016 C16.85028883 28.41062513 16.87297166 31.36883461 16.890625 34.328125 C16.91127014 35.24805237 16.93191528 36.16797974 16.95318604 37.11578369 C16.95543177 43.51268952 16.95543177 43.51268952 14.59130859 46.69116211 C10.59171011 49.43335705 6.8987049 49.28468121 2.125 49.3125 C1.02414063 49.32667969 -0.07671875 49.34085938 -1.2109375 49.35546875 C-4.61475276 49.11695913 -7.32416186 48.33872666 -10.5 47.125 C-10.17 45.805 -9.84 44.485 -9.5 43.125 C-8.84 43.29 -8.18 43.455 -7.5 43.625 C-2.95290619 44.38284897 1.39863844 44.60992959 5.9375 43.5625 C8.48749255 41.21650686 8.25432465 38.44161719 8.5 35.125 C7.57380859 35.17720703 7.57380859 35.17720703 6.62890625 35.23046875 C-0.24718554 35.45025251 -6.94527037 35.21671863 -12.359375 30.5078125 C-16.73858894 25.64897037 -17.83392217 21.82751266 -17.7109375 15.2109375 C-17.20819072 10.23933042 -15.25702831 6.51427945 -11.5625 3.25 C-7.60156682 0.50159739 -4.7538647 -0.01628036 0 0 Z M-7.5 9.125 C-10.06609657 13.20742637 -9.62793003 17.12536492 -9.04296875 21.75 C-8.28958349 25.04538299 -6.97934702 26.85816843 -4.5 29.125 C-1.46544025 30.96764137 0.71971974 31.35383177 4.25 31.25 C5.44882812 31.22292969 5.44882812 31.22292969 6.671875 31.1953125 C7.27515625 31.17210938 7.8784375 31.14890625 8.5 31.125 C8.58676908 27.00013162 8.64031295 22.87549616 8.6875 18.75 C8.71263672 17.574375 8.73777344 16.39875 8.76367188 15.1875 C8.77333984 14.06601563 8.78300781 12.94453125 8.79296875 11.7890625 C8.8086792 10.75217285 8.82438965 9.7152832 8.84057617 8.64697266 C8.72818604 7.81472168 8.6157959 6.9824707 8.5 6.125 C2.12712612 1.87641742 -3.07024153 3.26208437 -7.5 9.125 Z " fill="#FF0015" transform="translate(22.5,67.875)"/>
<path d="M0 0 C2.64 0 5.28 0 8 0 C8 17.82 8 35.64 8 54 C-15.53333333 54 -15.53333333 54 -20.828125 49.41796875 C-23.82197431 46.20727522 -25.77527478 43.49450434 -26 39 C-26.12375 37.329375 -26.12375 37.329375 -26.25 35.625 C-25.86431252 30.03253151 -24.2929693 25.852097 -20.0625 22.125 C-16.07979496 19.36149038 -13.21826746 18.85882143 -8.4375 18.875 C-7.29087891 18.87113281 -7.29087891 18.87113281 -6.12109375 18.8671875 C-4 19 -4 19 -1 20 C-0.67 13.4 -0.34 6.8 0 0 Z M-16 28 C-18.76351497 32.5221154 -18.09772426 37.01034425 -17 42 C-15.18875097 46.16587277 -13.21244838 48.26007567 -9 50 C-7.44197693 50.08031918 -5.88017435 50.10101565 -4.3203125 50.07421875 C-3.51094238 50.06350342 -2.70157227 50.05278809 -1.86767578 50.04174805 C-0.94317627 50.02108276 -0.94317627 50.02108276 0 50 C0.08676908 45.87513162 0.14031295 41.75049616 0.1875 37.625 C0.21263672 36.449375 0.23777344 35.27375 0.26367188 34.0625 C0.27333984 32.94101563 0.28300781 31.81953125 0.29296875 30.6640625 C0.3086792 29.62717285 0.32438965 28.5902832 0.34057617 27.52197266 C0.22818604 26.68972168 0.1157959 25.8574707 0 25 C-6.37287388 20.75141742 -11.57024153 22.13708437 -16 28 Z " fill="#FF0015" transform="translate(111,49)"/>
<path d="M0 0 C2.64 0 5.28 0 8 0 C8.33 6.93 8.66 13.86 9 21 C11.31 20.34 13.62 19.68 16 19 C19.60436127 18.52719622 22.86679317 18.45551586 26.21386719 20.0637207 C28.82492393 22.89426895 28.50071878 25.64287669 28.390625 29.29296875 C28.38496521 29.99899734 28.37930542 30.70502594 28.37347412 31.43244934 C28.35110411 33.68482626 28.30091199 35.93560503 28.25 38.1875 C28.22993556 39.71547179 28.21168468 41.24346856 28.1953125 42.77148438 C28.15123802 46.51493756 28.08221074 50.25719795 28 54 C25.36 54 22.72 54 20 54 C19.67 44.43 19.34 34.86 19 25 C12.5797509 24.63106761 12.5797509 24.63106761 9 26 C8.67 35.24 8.34 44.48 8 54 C5.36 54 2.72 54 0 54 C0 36.18 0 18.36 0 0 Z " fill="#FF0015" transform="translate(216,49)"/>
<path d="M0 0 C1.78083984 -0.02513672 1.78083984 -0.02513672 3.59765625 -0.05078125 C7.36047951 0.3585083 9.03488489 0.89579059 11.9375 3.3125 C12.39617463 5.96137068 12.52526379 7.96684237 12.42578125 10.60546875 C12.41870651 11.31149734 12.41163177 12.01752594 12.40434265 12.74494934 C12.3763753 14.99771584 12.31364334 17.24798648 12.25 19.5 C12.22491966 21.02795886 12.20210601 22.55595673 12.18164062 24.08398438 C12.12654244 27.82778306 12.04026286 31.56971859 11.9375 35.3125 C-7.66054454 35.91380364 -7.66054454 35.91380364 -15.5 30.6875 C-17.87787109 27.07313595 -18.24090108 23.594126 -18.0625 19.3125 C-16.83836148 15.42405999 -15.78036677 13.83776837 -12.5 11.4375 C-7.05392158 9.65514706 -1.51975059 9.49341647 3.9375 11.3125 C3.2775 9.3325 2.6175 7.3525 1.9375 5.3125 C-2.6825 5.3125 -7.3025 5.3125 -12.0625 5.3125 C-12.3925 4.3225 -12.7225 3.3325 -13.0625 2.3125 C-8.58001879 0.59478583 -4.79407268 0.01564986 0 0 Z M-8 15.3125 C-9.70429869 18.52059166 -10.31437388 21.72329722 -10.0625 25.3125 C-8.29785939 28.17243478 -7.06684303 29.81032849 -4.0625 31.3125 C-1.4225 31.3125 1.2175 31.3125 3.9375 31.3125 C3.9375 26.0325 3.9375 20.7525 3.9375 15.3125 C0.30321792 13.49535896 -4.38773459 13.44810495 -8 15.3125 Z " fill="#FF0015" transform="translate(195.0625,67.6875)"/>
<path d="M0 0 C1.1034375 -0.02578125 2.206875 -0.0515625 3.34375 -0.078125 C6.85375095 0.28677609 8.69150405 1.15380375 11.5 3.25 C12.96098845 6.1719769 12.61134901 8.74893475 12.59765625 12.0078125 C12.5962413 12.67086395 12.59482635 13.33391541 12.59336853 14.01705933 C12.58776754 16.13641863 12.575215 18.25567259 12.5625 20.375 C12.55748512 21.81119639 12.55292219 23.24739444 12.54882812 24.68359375 C12.53779782 28.20576345 12.52053259 31.72787145 12.5 35.25 C-7.64608183 35.87450541 -7.64608183 35.87450541 -13.5 32.25 C-16.55416824 29.04684794 -17.72424684 26.53458356 -17.9375 22.1875 C-17.37803697 17.1523327 -16.21663999 14.805705 -12.5 11.4375 C-7.93152035 9.62914347 -3.35792065 9.84321759 1.5 10.25 C2.16 10.58 2.82 10.91 3.5 11.25 C3.5 9.6 3.5 7.95 3.5 6.25 C0.49686252 4.74843126 -2.29067522 5.15718796 -5.625 5.1875 C-6.90632812 5.19652344 -8.18765625 5.20554687 -9.5078125 5.21484375 C-10.49523437 5.22644531 -11.48265625 5.23804687 -12.5 5.25 C-12.17 3.93 -11.84 2.61 -11.5 1.25 C-7.63050773 0.35481895 -3.96946297 0.05564668 0 0 Z M-8.5625 15.75 C-9.90182093 19.32152249 -10.25756538 22.53572316 -9.5 26.25 C-7.7301177 29.4366503 -7.7301177 29.4366503 -4.5 31.25 C-1.37343604 31.65258432 1.32511009 31.48693208 4.5 31.25 C4.5 25.97 4.5 20.69 4.5 15.25 C0.52118649 13.26059325 -4.93751732 13.11364896 -8.5625 15.75 Z " fill="#FF0015" transform="translate(142.5,67.75)"/>
<path d="M0 0 C4.30365448 2.39654485 6.66640699 5.30785294 9 9.625 C10.52090219 15.07489951 10.40639547 19.46666249 8.0625 24.5625 C5.64154867 28.83476706 3.26953021 31.42403408 -1.4765625 33.09765625 C-7.74266261 34.71753043 -12.50115289 34.32922175 -18.25 31.3125 C-23.14793786 27.69228506 -25.33901775 23.24797197 -26.25 17.3125 C-26.07793442 12.34504158 -25.06337021 7.90274606 -22.0625 3.875 C-15.55701368 -2.05222087 -7.99234158 -3.64771063 0 0 Z M-16.25 6.3125 C-18.50804635 12.97962264 -18.78023597 18.75688862 -16.25 25.3125 C-14.10674488 28.2977482 -12.81174788 29.13321876 -9.3125 30.25 C-5.47103629 30.32839722 -4.12231377 29.87429336 -1.25 27.3125 C2.14312537 20.97866599 2.39032038 15.30026482 0.75 8.3125 C-1.07845957 5.36337165 -2.17944355 3.84777823 -5.25 2.3125 C-10.32888143 1.74817984 -12.92494271 2.34090379 -16.25 6.3125 Z " fill="#FF0015" transform="translate(71.25,69.6875)"/>
<path d="M0 0 C2.64 0 5.28 0 8 0 C8 17.82 8 35.64 8 54 C5.36 54 2.72 54 0 54 C0 36.18 0 18.36 0 0 Z " fill="#FF0015" transform="translate(163,49)"/>
<path d="M0 0 C0.495 0.99 0.495 0.99 1 2 C0.4006665 1.8138916 -0.19866699 1.6277832 -0.81616211 1.43603516 C-7.0211163 -0.46200733 -13.25089708 -2.12245823 -19.5625 -3.625 C-20.44357422 -3.8415625 -21.32464844 -4.058125 -22.23242188 -4.28125 C-44.75304208 -9.66625439 -67.89722642 -7.51814442 -89.6796875 -0.0859375 C-92.46254213 0.82421966 -95.11967987 1.50716956 -98 2 C-89.09189469 -8.54232607 -69.37327721 -11.5173233 -56.4375 -12.8125 C-36.16553772 -13.81980247 -17.73173036 -9.94181969 0 0 Z " fill="#31706E" transform="translate(109,63)"/>
<path d="M0 0 C1.65 0 3.3 0 5 0 C5 1.65 5 3.3 5 5 C3.35 5 1.7 5 0 5 C0 3.35 0 1.7 0 0 Z " fill="#31706E" transform="translate(65,39)"/>
<path d="M0 0 C1.65 0 3.3 0 5 0 C5 1.65 5 3.3 5 5 C3.35 5 1.7 5 0 5 C0 3.35 0 1.7 0 0 Z " fill="#31706E" transform="translate(58,39)"/>
<path d="M0 0 C1.65 0 3.3 0 5 0 C5 1.65 5 3.3 5 5 C3.35 5 1.7 5 0 5 C0 3.35 0 1.7 0 0 Z " fill="#31706E" transform="translate(51,39)"/>
<path d="M0 0 C1.65 0 3.3 0 5 0 C5 1.65 5 3.3 5 5 C3.35 5 1.7 5 0 5 C0 3.35 0 1.7 0 0 Z " fill="#31706E" transform="translate(65,32)"/>
<path d="M0 0 C1.65 0 3.3 0 5 0 C5 1.65 5 3.3 5 5 C3.35 5 1.7 5 0 5 C0 3.35 0 1.7 0 0 Z " fill="#31706E" transform="translate(58,32)"/>
<path d="M0 0 C1.65 0 3.3 0 5 0 C5 1.65 5 3.3 5 5 C3.35 5 1.7 5 0 5 C0 3.35 0 1.7 0 0 Z " fill="#31706E" transform="translate(51,32)"/>
</svg>
